<svg width="49" height="43" viewBox="0 0 49 43" fill="none" xmlns="http://www.w3.org/2000/svg">
<path d="M24.5 0C19.6544 0 14.9175 1.26095 10.8885 3.6234C6.85953 5.98585 3.71931 9.34369 1.86496 13.2723C0.0106155 17.2009 -0.474566 21.5238 0.470772 25.6944C1.41611 29.865 3.74951 33.696 7.17589 36.7028C10.6023 39.7096 14.9678 41.7573 19.7203 42.5869C24.4728 43.4165 29.399 42.9907 33.8757 41.3634C38.3525 39.7361 42.1789 36.9804 44.871 33.4448C47.5631 29.9091 49 25.7523 49 21.5C48.9931 15.7997 46.4097 10.3346 41.8165 6.30385C37.2234 2.27312 30.9957 0.00601962 24.5 0ZM24.5 39.6923C20.3998 39.6923 16.3918 38.6253 12.9826 36.6263C9.57345 34.6273 6.91634 31.7861 5.34728 28.4619C3.77821 25.1377 3.36768 21.4798 4.16758 17.9509C4.96748 14.4219 6.94189 11.1803 9.84114 8.63609C12.7404 6.09186 16.4343 4.35921 20.4556 3.65725C24.477 2.9553 28.6453 3.31557 32.4333 4.6925C36.2214 6.06943 39.4591 8.40118 41.737 11.3929C44.0149 14.3846 45.2308 17.9019 45.2308 21.5C45.2245 26.3232 43.0384 30.9473 39.152 34.3579C35.2656 37.7684 29.9962 39.6868 24.5 39.6923ZM28.2692 31.4231C28.2692 31.8617 28.0707 32.2824 27.7172 32.5925C27.3638 32.9027 26.8845 33.0769 26.3846 33.0769C25.385 33.0769 24.4262 32.7284 23.7194 32.1081C23.0125 31.4878 22.6154 30.6465 22.6154 29.7692V21.5C22.1156 21.5 21.6362 21.3258 21.2828 21.0156C20.9293 20.7054 20.7308 20.2848 20.7308 19.8461C20.7308 19.4075 20.9293 18.9869 21.2828 18.6767C21.6362 18.3665 22.1156 18.1923 22.6154 18.1923C23.6151 18.1923 24.5738 18.5408 25.2806 19.1611C25.9875 19.7814 26.3846 20.6227 26.3846 21.5V29.7692C26.8845 29.7692 27.3638 29.9435 27.7172 30.2536C28.0707 30.5638 28.2692 30.9844 28.2692 31.4231ZM20.7308 12.4038C20.7308 11.9132 20.8966 11.4336 21.2072 11.0256C21.5178 10.6176 21.9593 10.2997 22.4759 10.1119C22.9924 9.92415 23.5608 9.87502 24.1092 9.97074C24.6576 10.0665 25.1613 10.3027 25.5566 10.6497C25.952 10.9966 26.2212 11.4386 26.3303 11.9199C26.4394 12.4011 26.3834 12.8999 26.1694 13.3532C25.9555 13.8065 25.5931 14.1939 25.1283 14.4665C24.6634 14.7391 24.1168 14.8846 23.5577 14.8846C22.808 14.8846 22.0889 14.6232 21.5588 14.158C21.0286 13.6928 20.7308 13.0618 20.7308 12.4038Z" fill="black"/>
</svg>
