<svg width="45" height="32" viewBox="0 0 45 32" fill="none" xmlns="http://www.w3.org/2000/svg">
<path d="M35.625 13.3333C35.625 13.687 35.4275 14.0261 35.0758 14.2761C34.7242 14.5262 34.2473 14.6667 33.75 14.6667H18.75C18.2527 14.6667 17.7758 14.5262 17.4242 14.2761C17.0725 14.0261 16.875 13.687 16.875 13.3333C16.875 12.9797 17.0725 12.6406 17.4242 12.3905C17.7758 12.1405 18.2527 12 18.75 12H33.75C34.2473 12 34.7242 12.1405 35.0758 12.3905C35.4275 12.6406 35.625 12.9797 35.625 13.3333ZM33.75 17.3333H18.75C18.2527 17.3333 17.7758 17.4738 17.4242 17.7239C17.0725 17.9739 16.875 18.313 16.875 18.6667C16.875 19.0203 17.0725 19.3594 17.4242 19.6095C17.7758 19.8595 18.2527 20 18.75 20H33.75C34.2473 20 34.7242 19.8595 35.0758 19.6095C35.4275 19.3594 35.625 19.0203 35.625 18.6667C35.625 18.313 35.4275 17.9739 35.0758 17.7239C34.7242 17.4738 34.2473 17.3333 33.75 17.3333ZM45 2.66667V29.3333C45 30.0406 44.6049 30.7189 43.9016 31.219C43.1984 31.719 42.2446 32 41.25 32H3.75C2.75544 32 1.80161 31.719 1.09835 31.219C0.395088 30.7189 0 30.0406 0 29.3333V2.66667C0 1.95942 0.395088 1.28115 1.09835 0.781048C1.80161 0.280951 2.75544 0 3.75 0H41.25C42.2446 0 43.1984 0.280951 43.9016 0.781048C44.6049 1.28115 45 1.95942 45 2.66667ZM3.75 29.3333H9.375V2.66667H3.75V29.3333ZM41.25 29.3333V2.66667H13.125V29.3333H41.25Z" fill="black"/>
</svg>
