<svg width="49" height="43" viewBox="0 0 49 43" fill="none" xmlns="http://www.w3.org/2000/svg">
<path d="M24.5 0C19.6544 0 14.9175 1.26095 10.8885 3.6234C6.85953 5.98585 3.71931 9.34369 1.86496 13.2723C0.0106155 17.2009 -0.474566 21.5238 0.470772 25.6944C1.41611 29.865 3.74951 33.696 7.17589 36.7028C10.6023 39.7096 14.9678 41.7573 19.7203 42.5869C24.4728 43.4165 29.399 42.9907 33.8757 41.3634C38.3525 39.7361 42.1789 36.9804 44.871 33.4448C47.5631 29.9091 49 25.7523 49 21.5C48.9931 15.7997 46.4097 10.3346 41.8165 6.30385C37.2234 2.27312 30.9957 0.00601962 24.5 0ZM11.7977 35.8678C13.1611 33.9966 15.0393 32.4568 17.2591 31.3901C19.479 30.3235 21.9691 29.7644 24.5 29.7644C27.0309 29.7644 29.521 30.3235 31.7409 31.3901C33.9608 32.4568 35.8389 33.9966 37.2023 35.8678C33.5705 38.3465 29.1009 39.6922 24.5 39.6922C19.8991 39.6922 15.4295 38.3465 11.7977 35.8678ZM16.9615 19.8461C16.9615 18.5378 17.4037 17.2587 18.232 16.1708C19.0603 15.0829 20.2377 14.235 21.6152 13.7343C22.9926 13.2336 24.5084 13.1026 25.9707 13.3579C27.433 13.6131 28.7762 14.2432 29.8305 15.1684C30.8848 16.0935 31.6027 17.2723 31.8936 18.5556C32.1845 19.8388 32.0352 21.1689 31.4646 22.3777C30.8941 23.5865 29.9278 24.6197 28.6881 25.3466C27.4485 26.0735 25.991 26.4615 24.5 26.4615C22.5007 26.4615 20.5832 25.7646 19.1695 24.5239C17.7558 23.2833 16.9615 21.6007 16.9615 19.8461ZM39.9915 33.5751C37.8896 30.9023 34.9341 28.8344 31.4966 27.6316C33.3431 26.3554 34.6905 24.6059 35.3514 22.6265C36.0124 20.647 35.954 18.5361 35.1844 16.5871C34.4148 14.6382 32.9723 12.9481 31.0574 11.752C29.1425 10.5559 26.8505 9.91311 24.5 9.91311C22.1496 9.91311 19.8575 10.5559 17.9426 11.752C16.0278 12.9481 14.5852 14.6382 13.8156 16.5871C13.046 18.5361 12.9876 20.647 13.6486 22.6265C14.3095 24.6059 15.6569 26.3554 17.5034 27.6316C14.0659 28.8344 11.1104 30.9023 9.00847 33.5751C6.3525 30.9541 4.61654 27.7152 4.00964 24.2485C3.40273 20.7817 3.95074 17.2349 5.5877 14.0352C7.22465 10.8354 9.88075 8.1191 13.2361 6.21337C16.5915 4.30764 20.5032 3.29373 24.5 3.29373C28.4968 3.29373 32.4085 4.30764 35.7639 6.21337C39.1193 8.1191 41.7754 10.8354 43.4123 14.0352C45.0493 17.2349 45.5973 20.7817 44.9904 24.2485C44.3835 27.7152 42.6475 30.9541 39.9915 33.5751Z" fill="black"/>
</svg>
