<svg width="49" height="43" viewBox="0 0 49 43" fill="none" xmlns="http://www.w3.org/2000/svg">
<path d="M48.444 31.412C47.0273 29.4356 44.9215 23.8433 44.9215 16.5392C44.9215 12.1527 42.7701 7.94591 38.9405 4.84421C35.111 1.74252 29.917 0 24.5013 0C19.0855 0 13.8915 1.74252 10.062 4.84421C6.23249 7.94591 4.08108 12.1527 4.08108 16.5392C4.08108 23.8454 1.9727 29.4356 0.556044 31.412C0.194276 31.9145 0.00248946 32.4853 2.40728e-05 33.067C-0.00244132 33.6487 0.184502 34.2206 0.542002 34.725C0.899502 35.2295 1.41492 35.6487 2.03627 35.9403C2.65762 36.232 3.36293 36.3858 4.08108 36.3862H14.4979C14.9691 38.2534 16.222 39.9315 18.0447 41.1366C19.8675 42.3418 22.1483 43 24.5013 43C26.8543 43 29.135 42.3418 30.9578 41.1366C32.7806 39.9315 34.0335 38.2534 34.5046 36.3862H44.9215C45.6394 36.3854 46.3444 36.2313 46.9654 35.9396C47.5864 35.6478 48.1014 35.2285 48.4586 34.7241C48.8158 34.2197 49.0025 33.648 49 33.0665C48.9974 32.485 48.8056 31.9143 48.444 31.412ZM24.5013 39.694C23.2348 39.6937 21.9995 39.3755 20.9655 38.7831C19.9315 38.1907 19.1496 37.3533 18.7275 36.3862H30.2751C29.8529 37.3533 29.071 38.1907 28.037 38.7831C27.003 39.3755 25.7678 39.6937 24.5013 39.694ZM4.08108 33.0784C6.04652 30.3411 8.16512 23.9983 8.16512 16.5392C8.16512 13.03 9.88624 9.66456 12.9499 7.18321C16.0135 4.70185 20.1687 3.30784 24.5013 3.30784C28.8339 3.30784 32.9891 4.70185 36.0527 7.18321C39.1163 9.66456 40.8374 13.03 40.8374 16.5392C40.8374 23.9921 42.9509 30.3349 44.9215 33.0784H4.08108Z" fill="black"/>
</svg>
