<svg width="32.8" height="70" viewBox="0 0 70 70" fill="none" xmlns="http://www.w3.org/2000/svg">
<path d="M70 46.6667C70 47.4402 69.6793 48.1821 69.1086 48.7291C68.5378 49.276 67.7637 49.5833 66.9565 49.5833H57.8261V55.4167H63.913C64.7202 55.4167 65.4943 55.724 66.0651 56.2709C66.6359 56.8179 66.9565 57.5598 66.9565 58.3333C66.9565 59.1069 66.6359 59.8487 66.0651 60.3957C65.4943 60.9427 64.7202 61.25 63.913 61.25H57.8261V67.0833C57.8261 67.8569 57.5054 68.5987 56.9347 69.1457C56.3639 69.6927 55.5898 70 54.7826 70C53.9754 70 53.2013 69.6927 52.6305 69.1457C52.0598 68.5987 51.7391 67.8569 51.7391 67.0833V46.6667C51.7391 45.8931 52.0598 45.1512 52.6305 44.6043C53.2013 44.0573 53.9754 43.75 54.7826 43.75H66.9565C67.7637 43.75 68.5378 44.0573 69.1086 44.6043C69.6793 45.1512 70 45.8931 70 46.6667ZM19.7826 53.9583C19.7826 56.6657 18.6603 59.2623 16.6627 61.1767C14.665 63.0911 11.9556 64.1667 9.13043 64.1667H6.08696V67.0833C6.08696 67.8569 5.7663 68.5987 5.19554 69.1457C4.62478 69.6927 3.85066 70 3.04348 70C2.2363 70 1.46218 69.6927 0.891415 69.1457C0.320652 68.5987 0 67.8569 0 67.0833V46.6667C0 45.8931 0.320652 45.1512 0.891415 44.6043C1.46218 44.0573 2.2363 43.75 3.04348 43.75H9.13043C11.9556 43.75 14.665 44.8255 16.6627 46.7399C18.6603 48.6544 19.7826 51.2509 19.7826 53.9583ZM13.6957 53.9583C13.6957 52.798 13.2147 51.6852 12.3585 50.8647C11.5024 50.0443 10.3412 49.5833 9.13043 49.5833H6.08696V58.3333H9.13043C10.3412 58.3333 11.5024 57.8724 12.3585 57.0519C13.2147 56.2314 13.6957 55.1187 13.6957 53.9583ZM47.1739 56.875C47.1739 60.356 45.731 63.6944 43.1625 66.1558C40.5941 68.6172 37.1106 70 33.4783 70H27.3913C26.5841 70 25.81 69.6927 25.2392 69.1457C24.6685 68.5987 24.3478 67.8569 24.3478 67.0833V46.6667C24.3478 45.8931 24.6685 45.1512 25.2392 44.6043C25.81 44.0573 26.5841 43.75 27.3913 43.75H33.4783C37.1106 43.75 40.5941 45.1328 43.1625 47.5942C45.731 50.0556 47.1739 53.394 47.1739 56.875ZM41.087 56.875C41.087 54.9411 40.2853 53.0865 38.8584 51.719C37.4315 50.3516 35.4962 49.5833 33.4783 49.5833H30.4348V64.1667H33.4783C35.4962 64.1667 37.4315 63.3984 38.8584 62.031C40.2853 60.6635 41.087 58.8089 41.087 56.875ZM0 32.0833V5.83333C0 4.28624 0.641302 2.80251 1.78283 1.70854C2.92435 0.614582 4.47259 9.01829e-07 6.08696 9.01829e-07H42.6087C43.0085 -0.000300375 43.4044 0.0748878 43.7739 0.22127C44.1434 0.367652 44.4791 0.582359 44.762 0.853126L66.0663 21.2698C66.3488 21.5409 66.5729 21.8626 66.7256 22.2167C66.8784 22.5708 66.9568 22.9502 66.9565 23.3333V32.0833C66.9565 32.8569 66.6359 33.5987 66.0651 34.1457C65.4943 34.6927 64.7202 35 63.913 35C63.1059 35 62.3317 34.6927 61.761 34.1457C61.1902 33.5987 60.8696 32.8569 60.8696 32.0833V26.25H42.6087C41.8015 26.25 41.0274 25.9427 40.4566 25.3957C39.8859 24.8487 39.5652 24.1069 39.5652 23.3333V5.83333H6.08696V32.0833C6.08696 32.8569 5.7663 33.5987 5.19554 34.1457C4.62478 34.6927 3.85066 35 3.04348 35C2.2363 35 1.46218 34.6927 0.891415 34.1457C0.320652 33.5987 0 32.8569 0 32.0833ZM45.6522 20.4167H56.5668L45.6522 9.95677V20.4167Z" fill="black"/>
</svg>
