<svg width="45" height="32" viewBox="0 0 45 32" fill="none" xmlns="http://www.w3.org/2000/svg">
<path d="M44.3956 18.5867C44.238 18.7011 44.0587 18.7844 43.8679 18.8317C43.6771 18.879 43.4785 18.8895 43.2836 18.8626C43.0886 18.8356 42.901 18.7717 42.7315 18.6745C42.562 18.5774 42.414 18.4488 42.2958 18.2963C41.3918 17.1197 40.2151 16.1651 38.8605 15.5093C37.5059 14.8535 36.0112 14.5148 34.4967 14.5205C34.2017 14.5205 33.9134 14.4363 33.6676 14.2784C33.4218 14.1205 33.2296 13.896 33.115 13.6329C33.0371 13.4542 32.997 13.2622 32.997 13.0683C32.997 12.8744 33.0371 12.6824 33.115 12.5038C33.2296 12.2407 33.4218 12.0161 33.6676 11.8582C33.9134 11.7004 34.2017 11.6161 34.4967 11.6161C35.3382 11.616 36.1629 11.3875 36.877 10.9563C37.5911 10.5252 38.166 9.90883 38.5364 9.1772C38.9068 8.44556 39.0579 7.62801 38.9725 6.81739C38.8872 6.00678 38.5687 5.2356 38.0533 4.59145C37.538 3.9473 36.8464 3.456 36.0571 3.17336C35.2678 2.89071 34.4124 2.82805 33.5882 2.9925C32.764 3.15694 32.0039 3.54189 31.3943 4.10363C30.7847 4.66537 30.3501 5.38138 30.1397 6.17032C30.0904 6.35507 30.0041 6.52862 29.8856 6.68105C29.7671 6.83349 29.6187 6.96184 29.449 7.05876C29.2792 7.15569 29.0914 7.21929 28.8963 7.24594C28.7012 7.27259 28.5026 7.26177 28.3118 7.2141C28.1209 7.16642 27.9417 7.08282 27.7843 6.96807C27.6268 6.85333 27.4943 6.70968 27.3942 6.54533C27.2941 6.38098 27.2284 6.19915 27.2009 6.01022C27.1733 5.82129 27.1845 5.62896 27.2337 5.44422C27.5258 4.35018 28.0774 3.33724 28.8449 2.48598C29.6124 1.63472 30.5745 0.968641 31.6546 0.540743C32.7347 0.112845 33.9031 -0.0650612 35.0667 0.0211792C36.2303 0.10742 37.3571 0.455427 38.3574 1.03751C39.3577 1.61959 40.2038 2.41969 40.8286 3.37413C41.4533 4.32857 41.8393 5.41101 41.956 6.53533C42.0726 7.65965 41.9166 8.79481 41.5004 9.85049C41.0842 10.9062 40.4193 11.8532 39.5586 12.6163C41.598 13.4713 43.3709 14.8281 44.7011 16.5518C44.8193 16.7048 44.9052 16.8788 44.9538 17.0639C45.0024 17.249 45.0128 17.4416 44.9844 17.6306C44.956 17.8197 44.8894 18.0014 44.7883 18.1655C44.6873 18.3295 44.5538 18.4727 44.3956 18.5867ZM34.2942 29.7687C34.4027 29.934 34.4756 30.1188 34.5084 30.3121C34.5412 30.5054 34.5334 30.7031 34.4852 30.8933C34.4371 31.0835 34.3497 31.2624 34.2284 31.4191C34.107 31.5758 33.9542 31.7071 33.7791 31.8051C33.6039 31.9031 33.4101 31.9658 33.2093 31.9894C33.0085 32.013 32.8049 31.9971 32.6106 31.9425C32.4163 31.8879 32.2355 31.7959 32.0789 31.6719C31.9223 31.5479 31.7933 31.3945 31.6995 31.2209C30.7547 29.6719 29.4091 28.3882 27.7955 27.4964C26.1819 26.6046 24.356 26.1355 22.498 26.1355C20.6401 26.1355 18.8142 26.6046 17.2006 27.4964C15.587 28.3882 14.2414 29.6719 13.2966 31.2209C13.2028 31.3945 13.0738 31.5479 12.9172 31.6719C12.7606 31.7959 12.5797 31.8879 12.3855 31.9425C12.1912 31.9971 11.9875 32.013 11.7867 31.9894C11.5859 31.9658 11.3921 31.9031 11.217 31.8051C11.0419 31.7071 10.889 31.5758 10.7677 31.4191C10.6463 31.2624 10.559 31.0835 10.5108 30.8933C10.4627 30.7031 10.4548 30.5054 10.4876 30.3121C10.5205 30.1188 10.5933 29.934 10.7019 29.7687C12.1559 27.3497 14.3731 25.446 17.0274 24.3375C15.5338 23.2302 14.4361 21.6976 13.8886 19.9551C13.3411 18.2126 13.3714 16.3478 13.9751 14.6227C14.5788 12.8977 15.7256 11.3992 17.2544 10.3379C18.7831 9.27664 20.6169 8.70587 22.498 8.70587C24.3791 8.70587 26.2129 9.27664 27.7417 10.3379C29.2704 11.3992 30.4173 12.8977 31.021 14.6227C31.6247 16.3478 31.6549 18.2126 31.1074 19.9551C30.5599 21.6976 29.4623 23.2302 27.9687 24.3375C30.623 25.446 32.8401 27.3497 34.2942 29.7687ZM22.498 23.2338C23.6846 23.2338 24.8445 22.8931 25.8311 22.2548C26.8177 21.6165 27.5866 20.7093 28.0407 19.6479C28.4948 18.5865 28.6136 17.4185 28.3821 16.2917C28.1506 15.1649 27.5792 14.1299 26.7402 13.3175C25.9012 12.5051 24.8322 11.9519 23.6684 11.7277C22.5047 11.5036 21.2984 11.6186 20.2022 12.0583C19.106 12.4979 18.169 13.2425 17.5098 14.1977C16.8506 15.153 16.4987 16.2761 16.4987 17.4249C16.4987 18.9655 17.1308 20.443 18.2559 21.5324C19.381 22.6218 20.9069 23.2338 22.498 23.2338ZM11.9992 13.0683C11.9992 12.6832 11.8412 12.3138 11.5599 12.0414C11.2787 11.7691 10.8972 11.6161 10.4994 11.6161C9.65784 11.616 8.83319 11.3875 8.11909 10.9563C7.405 10.5252 6.83008 9.90883 6.45965 9.1772C6.08922 8.44556 5.93812 7.62801 6.02351 6.81739C6.10891 6.00678 6.42737 5.2356 6.94274 4.59145C7.4581 3.9473 8.14971 3.456 8.939 3.17336C9.72828 2.89071 10.5836 2.82805 11.4078 2.9925C12.2321 3.15694 12.9921 3.54189 13.6017 4.10363C14.2113 4.66537 14.646 5.38138 14.8564 6.17032C14.9558 6.54344 15.2043 6.86302 15.5471 7.05876C15.8899 7.25451 16.299 7.31038 16.6843 7.2141C17.0697 7.11781 17.3997 6.87725 17.6019 6.54533C17.8041 6.21341 17.8618 5.81733 17.7623 5.44422C17.4703 4.35018 16.9186 3.33724 16.1511 2.48598C15.3837 1.63472 14.4216 0.968641 13.3415 0.540743C12.2614 0.112845 11.093 -0.0650612 9.92937 0.0211792C8.76574 0.10742 7.63896 0.455427 6.63868 1.03751C5.6384 1.61959 4.79224 2.41969 4.16751 3.37413C3.54279 4.32857 3.15675 5.41101 3.0401 6.53533C2.92346 7.65965 3.07944 8.79481 3.49563 9.85049C3.91182 10.9062 4.57673 11.8532 5.43746 12.6163C3.40009 13.4721 1.62922 14.8288 0.300535 16.5518C0.0616185 16.8599 -0.0410988 17.2473 0.01498 17.6288C0.0710587 18.0102 0.28134 18.3545 0.599564 18.5858C0.917788 18.8171 1.31789 18.9166 1.71184 18.8623C2.1058 18.808 2.46135 18.6044 2.70026 18.2963C3.60426 17.1197 4.78093 16.1651 6.13555 15.5093C7.49017 14.8535 8.98489 14.5148 10.4994 14.5205C10.8972 14.5205 11.2787 14.3675 11.5599 14.0952C11.8412 13.8228 11.9992 13.4535 11.9992 13.0683Z" fill="black"/>
</svg>
