<svg width="45" height="32" viewBox="0 0 45 32" fill="none" xmlns="http://www.w3.org/2000/svg">
<path d="M44.8368 12.0384C44.6358 11.5829 44.2566 11.1814 43.7467 10.8846C43.2369 10.5877 42.6194 10.4088 41.9719 10.3703L30.1184 9.66508L25.5418 1.50351C25.2943 1.05879 24.873 0.678392 24.3316 0.41067C23.7901 0.142948 23.1529 0 22.501 0C21.8491 0 21.212 0.142948 20.6705 0.41067C20.1291 0.678392 19.7078 1.05879 19.4603 1.50351L14.8877 9.6636L3.02823 10.3703C2.37966 10.4107 1.7617 10.5914 1.25177 10.8897C0.741836 11.188 0.362618 11.5906 0.161622 12.0471C-0.0393738 12.5036 -0.0532079 12.9937 0.121853 13.456C0.296914 13.9183 0.653084 14.3322 1.14574 14.6459L10.1865 20.3985L7.43209 29.0001C7.27804 29.4674 7.31576 29.9579 7.54045 30.4094C7.76515 30.8609 8.16669 31.2529 8.6941 31.5358C9.22151 31.8187 9.85101 31.9796 10.5027 31.9982C11.1544 32.0168 11.7988 31.8921 12.3543 31.6401L22.5 27.0356L32.6518 31.6401C33.2075 31.8892 33.8506 32.0114 34.5003 31.9914C35.1499 31.9714 35.7771 31.8102 36.3027 31.5279C36.8283 31.2456 37.2289 30.855 37.4541 30.4052C37.6792 29.9554 37.7189 29.4665 37.568 29.0001L34.8035 20.397L43.8443 14.6444C44.3409 14.3312 44.7004 13.9164 44.8771 13.4525C45.0537 12.9886 45.0397 12.4965 44.8368 12.0384ZM41.7549 12.8488L31.9708 19.0711C31.7476 19.2129 31.5816 19.3972 31.4909 19.6039C31.4002 19.8106 31.3883 20.0316 31.4564 20.243L34.4459 29.5468C34.4537 29.5596 34.4544 29.5741 34.4481 29.5874C34.4417 29.6006 34.4287 29.6115 34.4118 29.6179C34.3756 29.6386 34.3656 29.6342 34.3354 29.6179L23.3418 24.6326C23.0886 24.5179 22.7973 24.4571 22.5 24.4571C22.2028 24.4571 21.9114 24.5179 21.6582 24.6326L10.6647 29.6208C10.6345 29.6342 10.6265 29.6386 10.5883 29.6208C10.5714 29.6145 10.5584 29.6035 10.552 29.5903C10.5457 29.5771 10.5464 29.5626 10.5542 29.5497L13.5436 20.2459C13.6118 20.0346 13.5998 19.8135 13.5091 19.6069C13.4184 19.4002 13.2525 19.2159 13.0293 19.0741L3.24521 12.8518C3.2211 12.837 3.199 12.8236 3.21909 12.7777C3.23918 12.7318 3.25525 12.7377 3.28539 12.7347L16.1273 11.9703C16.4218 11.9517 16.7037 11.8735 16.9419 11.7444C17.1801 11.6152 17.3654 11.4402 17.4774 11.2384L22.4237 2.40723C22.4398 2.38204 22.4458 2.37019 22.494 2.37019C22.5422 2.37019 22.5483 2.38204 22.5643 2.40723L27.5227 11.2384C27.6357 11.4403 27.8222 11.6151 28.0615 11.7438C28.3008 11.8724 28.5836 11.9497 28.8788 11.9673L41.7207 12.7318C41.7509 12.7318 41.7689 12.7318 41.787 12.7747C41.8051 12.8177 41.787 12.834 41.7549 12.8488Z" fill="black"/>
</svg>
